<svg xmlns="http://www.w3.org/2000/svg" version="1.1" xmlns:xlink="http://www.w3.org/1999/xlink" viewBox="0 0 200 200"><rect width="200" height="200" fill="url('#gradient')"></rect><defs><linearGradient id="gradient" gradientTransform="rotate(73 0.5 0.5)"><stop offset="0%" stop-color="#f3f4f6"></stop><stop offset="100%" stop-color="#785920"></stop></linearGradient></defs><g><g fill="#215f97" transform="matrix(2.132249873031996,0,0,2.132249873031996,17.248789687239025,115.16455402103034)" stroke="#778ca7" stroke-width="0.45"><path d="M12.24-14.22L12.24-11.57L7.97-11.57L7.97 0L4.54 0L4.54-11.57L0.35-11.57L0.35-14.22L12.24-14.22ZM22.50-8.57L22.50-6.03L17.11-6.03L17.11-2.64L23.48-2.64L23.48 0L13.68 0L13.68-14.22L23.50-14.22L23.50-11.57L17.11-11.57L17.11-8.57L22.50-8.57ZM33.78 0L32.95-2.66L28.25-2.66L27.43 0L23.77 0L28.98-14.22L32.21-14.22L37.46 0L33.78 0ZM30.60-10.23L29.07-5.30L32.13-5.30L30.60-10.23ZM46.39-4.81L49.79-4.81Q49.73-3.33 48.99-2.19Q48.26-1.05 46.94-0.43Q45.62 0.20 43.92 0.20L43.92 0.20Q41.11 0.20 39.50-1.63Q37.89-3.46 37.89-6.79L37.89-6.79L37.89-7.49Q37.89-9.58 38.62-11.15Q39.35-12.71 40.71-13.57Q42.08-14.42 43.88-14.42L43.88-14.42Q46.46-14.42 48.04-13.06Q49.61-11.70 49.82-9.31L49.82-9.31L46.41-9.31Q46.37-10.61 45.75-11.17Q45.14-11.74 43.88-11.74L43.88-11.74Q42.60-11.74 42.00-10.78Q41.41-9.82 41.38-7.72L41.38-7.72L41.38-6.72Q41.38-4.44 41.95-3.47Q42.52-2.49 43.92-2.49L43.92-2.49Q45.10-2.49 45.72-3.05Q46.35-3.60 46.39-4.81L46.39-4.81ZM63.46-7.47L63.46-6.82Q63.46-4.74 62.69-3.13Q61.91-1.53 60.49-0.67Q59.07 0.20 57.26 0.20Q55.44 0.20 54.03-0.64Q52.63-1.47 51.84-3.03Q51.05-4.58 51.02-6.59L51.02-6.59L51.02-7.39Q51.02-9.48 51.78-11.08Q52.55-12.68 53.98-13.54Q55.41-14.41 57.24-14.41L57.24-14.41Q59.04-14.41 60.46-13.55Q61.88-12.70 62.66-11.11Q63.45-9.52 63.46-7.47L63.46-7.47ZM59.97-6.76L59.97-7.41Q59.97-9.53 59.26-10.63Q58.55-11.73 57.24-11.73L57.24-11.73Q54.66-11.73 54.51-7.86L54.51-7.86L54.50-6.82Q54.50-4.73 55.20-3.60Q55.89-2.48 57.26-2.48L57.26-2.48Q58.55-2.48 59.26-3.58Q59.96-4.69 59.97-6.76L59.97-6.76ZM77.27-7.47L77.27-6.82Q77.27-4.74 76.49-3.13Q75.72-1.53 74.30-0.67Q72.88 0.20 71.06 0.20Q69.25 0.20 67.84-0.64Q66.44-1.47 65.65-3.03Q64.86-4.58 64.82-6.59L64.82-6.59L64.82-7.39Q64.82-9.48 65.59-11.08Q66.36-12.68 67.79-13.54Q69.22-14.41 71.04-14.41L71.04-14.41Q72.85-14.41 74.27-13.55Q75.68-12.70 76.47-11.11Q77.26-9.52 77.27-7.47L77.27-7.47ZM73.78-6.76L73.78-7.41Q73.78-9.53 73.07-10.63Q72.36-11.73 71.04-11.73L71.04-11.73Q68.47-11.73 68.32-7.86L68.32-7.86L68.31-6.82Q68.31-4.73 69.00-3.60Q69.70-2.48 71.06-2.48L71.06-2.48Q72.36-2.48 73.07-3.58Q73.77-4.69 73.78-6.76L73.78-6.76Z"></path></g></g></svg>