<svg xmlns="http://www.w3.org/2000/svg" data-name="Layer 1" width="743.36999" height="582.89698" viewBox="0 0 743.36999 582.89698">
  <path d="M888.185,739.94849c0,2.06583-.0345,4.12916-.10342,6.18824-.10343,3.27832-.31024,6.55664-.62042,9.81H878.43109c-.31018-3.25336-.51691-6.53168-.62042-9.81-.069-2.05908-.10342-4.12241-.10342-6.18824,0-23.96631,4.27783-46.71,12.04443-67.71a177.11079,177.11079,0,0,1,11.76172-26.8291c-.00641.01251-.01287.02576-.01928.03827-19.05475,38.7627-12.66455,77.15967-13.31457,94.50183Z" transform="translate(-228.315 -158.55151)" fill="#215F97"/>
  <path d="M888.185,739.94849c0,2.06583-.0345,4.12916-.10342,6.18824-.10343,3.27832-.31024,6.55664-.62042,9.81H878.43109c-.31018-3.25336-.51691-6.53168-.62042-9.81-.069-2.05908-.10342-4.12241-.10342-6.18824,0-23.96631,4.27783-46.71,12.04443-67.71a177.11079,177.11079,0,0,1,11.76172-26.8291c-.00641.01251-.01287.02576-.01928.03827-19.05475,38.7627-12.66455,77.15967-13.31457,94.50183Z" transform="translate(-228.315 -158.55151)" opacity="0.2"/>
  <path d="M888.185,739.94849c0,2.06583-.0345,4.12916-.10342,6.18824-.10343,3.27832-.31024,6.55664-.62042,9.81H878.43109c-.31018-3.25336-.51691-6.53168-.62042-9.81-.069-2.05908-.10342-4.12241-.10342-6.18824,0-23.96631,4.27783-46.71,12.04443-67.71,7.76653,21,12.04443,43.74369,12.04443,67.71Z" transform="translate(-228.315 -158.55151)" fill="#215F97"/>
  <path d="M888.185,739.94849c0,2.06583-.0345,4.12916-.10342,6.18824-.10343,3.27832-.31024,6.55664-.62042,9.81H878.43109c-.31018-3.25336-.51691-6.53168-.62042-9.81-.069-2.05908-.10342-4.12241-.10342-6.18824,0-23.96631,4.27783-46.71,12.04443-67.71,7.76653,21,12.04443,43.74369,12.04443,67.71Z" transform="translate(-228.315 -158.55151)" fill="#fff" opacity="0.2"/>
  <path d="M888.185,739.94849c0,2.06583-.0345,4.12916-.10342,6.18824-.10343,3.27832-.31024,6.55664-.62042,9.81H878.43109c-.31018-3.25336-.51691-6.53168-.62042-9.81-.069-2.05908-.10342-4.12241-.10342-6.18824,0-23.96631,4.27783-46.71,12.04443-67.71,7.76653,21,12.04443,43.74369,12.04443,67.71Z" transform="translate(-228.315 -158.55151)" fill="#215F97"/>
  <path d="M888.185,739.94849c0,2.06583-.0345,4.12916-.10342,6.18824-.10343,3.27832-.31024,6.55664-.62042,9.81H878.43109c-.31018-3.25336-.51691-6.53168-.62042-9.81-.069-2.05908-.10342-4.12241-.10342-6.18824,0-23.96631,4.27783-46.71,12.04443-67.71,7.76653,21,12.04443,43.74369,12.04443,67.71Z" transform="translate(-228.315 -158.55151)" opacity="0.2"/>
  <path d="M888.185,739.94849c0,2.06583-.0345,4.12916-.10342,6.18824-.10343,3.27832-.31024,6.55664-.62042,9.81H878.43109c-.31018-3.25336-.51691-6.53168-.62042-9.81-.069-2.05908-.10342-4.12241-.10342-6.18824,0-23.96631,4.27783-46.71,12.04443-67.71,7.76653,21,12.04443,43.74369,12.04443,67.71Z" transform="translate(-228.315 -158.55151)" fill="#215F97"/>
  <path d="M888.185,739.94849c0,2.06583-.0345,4.12916-.10342,6.18824-.10343,3.27832-.31024,6.55664-.62042,9.81H878.43109c-.31018-3.25336-.51691-6.53168-.62042-9.81-.069-2.05908-.10342-4.12241-.10342-6.18824,0-23.96631,4.27783-46.71,12.04443-67.71,7.76653,21,12.04443,43.74369,12.04443,67.71Z" transform="translate(-228.315 -158.55151)" fill="#fff" opacity="0.2"/>
  <path d="M888.185,739.94849c0,2.06583-.0345,4.12916-.10342,6.18824-.10343,3.27832-.31024,6.55664-.62042,9.81H878.43109c-.31018-3.25336-.51691-6.53168-.62042-9.81-.069-2.05908-.10342-4.12241-.10342-6.18824,0-23.96631,4.27783-46.71,12.04443-67.71,7.76653,21,12.04443,43.74369,12.04443,67.71Z" transform="translate(-228.315 -158.55151)" fill="#215F97"/>
  <path d="M888.185,739.94849c0,2.06583-.0345,4.12916-.10342,6.18824-.10343,3.27832-.31024,6.55664-.62042,9.81H878.43109c-.31018-3.25336-.51691-6.53168-.62042-9.81-.069-2.05908-.10342-4.12241-.10342-6.18824,0-23.96631,4.27783-46.71,12.04443-67.71,7.76653,21,12.04443,43.74369,12.04443,67.71Z" transform="translate(-228.315 -158.55151)" opacity="0.2"/>
  <path d="M888.185,739.94849c0,2.06583-.0345,4.12916-.10342,6.18824-.10343,3.27832-.31024,6.55664-.62042,9.81H878.43109c-.31018-3.25336-.51691-6.53168-.62042-9.81-.069-2.05908-.10342-4.12241-.10342-6.18824,0-23.96631,4.27783-46.71,12.04443-67.71,7.76653,21,12.04443,43.74369,12.04443,67.71Z" transform="translate(-228.315 -158.55151)" fill="#215F97"/>
  <path d="M888.185,739.94849c0,2.06583-.0345,4.12916-.10342,6.18824-.10343,3.27832-.31024,6.55664-.62042,9.81H878.43109c-.31018-3.25336-.51691-6.53168-.62042-9.81-.069-2.05908-.10342-4.12241-.10342-6.18824,0-23.96631,4.27783-46.71,12.04443-67.71,7.76653,21,12.04443,43.74369,12.04443,67.71Z" transform="translate(-228.315 -158.55151)" fill="#fff" opacity="0.2"/>
</svg> 